<?xml version="1.0" encoding="utf-8"?>
<!-- Generator: Adobe Illustrator 23.0.1, SVG Export Plug-In . SVG Version: 6.00 Build 0)  -->
<svg version="1.1" id="Layer_1" xmlns="http://www.w3.org/2000/svg" xmlns:xlink="http://www.w3.org/1999/xlink" x="0px" y="0px"
	 width="259px" height="123.5px" viewBox="0 0 259 123.5" style="enable-background:new 0 0 259 123.5;" xml:space="preserve">
<path style="fill:#FFFFFF;" d="M245.7,85.4c0-0.7-0.1-1.2-0.2-1.7c-0.1-0.5-0.4-0.9-0.7-1.2c-0.3-0.3-0.7-0.5-1.2-0.7
	c-0.5-0.1-1.1-0.2-1.8-0.2c-0.7,0-1.3,0.1-1.8,0.2c-0.5,0.1-0.9,0.4-1.2,0.7c-0.3,0.3-0.5,0.7-0.7,1.2c-0.1,0.5-0.2,1-0.2,1.7v1.9
	h7.7V85.4z M237.2,85c0-1.4,0.4-2.5,1.2-3.2c0.8-0.7,1.9-1.1,3.4-1.1c1.5,0,2.7,0.4,3.4,1.1c0.8,0.7,1.1,1.8,1.2,3.2v3.2h-9.2V85z
	 M237.2,89.1h0.8v3.2h8.5v0.9h-8.5v3.2h-0.8V89.1z M237.2,100.3h8.5v-5.2h0.8v6.1h-9.2V100.3z"/>
<path style="fill:#FFFFFF;" d="M220.4,101.2h12.9v-1.1h-11.6V80.7h-1.3V101.2z M205.3,93.6l4.6-11.6h0.1l4.4,11.6H205.3z M201,101.2
	h1.4l2.6-6.6h9.8l2.6,6.6h1.4l-8.1-20.5h-1.4L201,101.2z M195.6,81.8v19.4h1.3V81.8h7.2v-1.1h-15.7v1.1H195.6z M170.8,101.2h1.3v-19
	h0.1l13,19h1.5V80.7h-1.3v18.8h-0.1l-13-18.8h-1.6V101.2z M154.8,101.2h13.9v-1.1H156v-9h11.8V90H156v-8.2h12.5v-1.1h-13.8V101.2z
	 M137.7,90.8v-9h7.3c0.7,0,1.4,0.1,2,0.2s1.2,0.4,1.7,0.7c0.5,0.3,0.9,0.8,1.1,1.3c0.3,0.5,0.4,1.2,0.4,2c0,0.8-0.1,1.5-0.4,2.1
	c-0.3,0.6-0.6,1.1-1.1,1.5c-0.5,0.4-1,0.7-1.7,0.8c-0.6,0.2-1.3,0.3-2.1,0.3H137.7z M136.4,101.2h1.3v-9.3h7.3
	c1.2,0,2.1,0.2,2.8,0.5c0.7,0.3,1.1,0.8,1.5,1.3c0.3,0.5,0.5,1.1,0.5,1.8c0.1,0.7,0.1,1.4,0.1,2.1c0,0.7,0,1.4,0,2
	c0,0.6,0.2,1.2,0.4,1.7h1.4c-0.2-0.2-0.3-0.4-0.4-0.7c-0.1-0.3-0.1-0.6-0.2-0.9c0-0.3-0.1-0.7-0.1-1.1v-1.2c0-0.7,0-1.3-0.1-2
	c-0.1-0.7-0.2-1.3-0.5-1.8c-0.3-0.6-0.7-1-1.2-1.4c-0.5-0.4-1.3-0.6-2.2-0.7v-0.1c1.4-0.2,2.5-0.8,3.2-1.8c0.8-0.9,1.2-2.1,1.2-3.5
	c0-1-0.2-1.8-0.5-2.5c-0.3-0.7-0.8-1.2-1.4-1.6s-1.3-0.7-2.1-0.9c-0.8-0.2-1.6-0.3-2.5-0.3h-8.6V101.2z"/>
<path style="fill:#FFFFFF;" d="M221.3,62.2v-9h7.3c0.7,0,1.3,0.1,2,0.2c0.6,0.2,1.2,0.4,1.7,0.7c0.5,0.3,0.9,0.8,1.1,1.3
	c0.3,0.5,0.4,1.2,0.4,2c0,0.8-0.1,1.5-0.4,2.1c-0.3,0.6-0.6,1.1-1.1,1.5c-0.5,0.4-1,0.7-1.7,0.8c-0.6,0.2-1.3,0.3-2.1,0.3H221.3z
	 M220,72.6h1.3v-9.3h7.3c1.2,0,2.1,0.2,2.8,0.5c0.7,0.3,1.1,0.8,1.5,1.3c0.3,0.5,0.5,1.1,0.5,1.8c0.1,0.7,0.1,1.4,0.1,2.1
	c0,0.7,0,1.4,0,2c0,0.6,0.2,1.2,0.4,1.7h1.4c-0.2-0.2-0.3-0.4-0.4-0.7c-0.1-0.3-0.1-0.6-0.2-0.9c0-0.3-0.1-0.7-0.1-1.1v-1.2
	c0-0.7,0-1.3-0.1-2c-0.1-0.7-0.2-1.3-0.5-1.8c-0.3-0.6-0.7-1-1.2-1.4c-0.5-0.4-1.3-0.6-2.2-0.7v-0.1c1.4-0.2,2.5-0.8,3.2-1.8
	c0.8-0.9,1.2-2.1,1.2-3.5c0-1-0.2-1.8-0.5-2.5c-0.3-0.7-0.8-1.2-1.4-1.6c-0.6-0.4-1.3-0.7-2.1-0.9c-0.8-0.2-1.6-0.3-2.5-0.3H220
	V72.6z M204,72.6h13.9v-1.1h-12.7v-9H217v-1.1h-11.8v-8.2h12.5v-1.1H204V72.6z M186,72.6h1.3v-7.2l4.3-3.9l9.3,11.1h1.6l-9.9-12
	l9.4-8.5h-1.6l-12.9,11.8V52.1H186V72.6z M166.3,72.6h1.3v-19h0.1l13,19h1.5V52.1h-1.3v18.8h-0.1l-13-18.8h-1.6V72.6z M151.2,65
	l4.6-11.6h0.1l4.4,11.6H151.2z M146.8,72.6h1.4l2.6-6.6h9.8l2.6,6.6h1.4l-8.1-20.5h-1.4L146.8,72.6z M141.4,53.2v19.4h1.3V53.2h7.2
	v-1.1h-15.7v1.1H141.4z"/>
<path style="fill:#FFFFFF;" d="M179.7,23.5v16.7h10V44h-14.5V23.5H179.7z M167,29c-0.3-0.4-0.6-0.8-1-1.1c-0.4-0.3-0.9-0.6-1.4-0.8
	c-0.5-0.2-1-0.3-1.6-0.3c-1,0-1.9,0.2-2.6,0.6c-0.7,0.4-1.3,0.9-1.7,1.6c-0.4,0.7-0.8,1.4-1,2.3c-0.2,0.8-0.3,1.7-0.3,2.6
	c0,0.9,0.1,1.7,0.3,2.5c0.2,0.8,0.5,1.5,1,2.2c0.4,0.7,1,1.2,1.7,1.6c0.7,0.4,1.6,0.6,2.6,0.6c1.4,0,2.5-0.4,3.2-1.3
	c0.8-0.8,1.2-2,1.4-3.3h4.4c-0.1,1.3-0.4,2.4-0.9,3.5c-0.5,1-1.1,1.9-1.9,2.6s-1.7,1.3-2.8,1.7c-1.1,0.4-2.2,0.6-3.5,0.6
	c-1.6,0-3-0.3-4.2-0.8c-1.3-0.5-2.3-1.3-3.2-2.3c-0.9-1-1.5-2.1-2-3.4c-0.5-1.3-0.7-2.7-0.7-4.2c0-1.5,0.2-3,0.7-4.3
	c0.5-1.3,1.1-2.5,2-3.4c0.9-1,1.9-1.7,3.2-2.3c1.3-0.6,2.7-0.8,4.2-0.8c1.1,0,2.2,0.2,3.2,0.5c1,0.3,1.9,0.8,2.7,1.4
	c0.8,0.6,1.5,1.4,2,2.3c0.5,0.9,0.8,2,1,3.2h-4.4C167.4,29.9,167.2,29.4,167,29 M135,27.3v-3.8h16.8v3.8h-6.1V44h-4.5V27.3H135z"/>
<g>
	<path style="fill:#FFFFFF;" d="M61,0.8C27.1,0.8-0.4,28.2-0.4,62.1c0,33.9,27.5,61.4,61.4,61.4c33.9,0,61.4-27.5,61.4-61.4
		C122.3,28.2,94.8,0.8,61,0.8z M47.6,106.8c-19.4-5.7-33.3-23.6-33.3-44.7c0-8.2,2.2-15.9,5.9-22.5L32.3,47
		c-2.4,4.5-3.8,9.7-3.8,15.1c0,13.2,8.1,24.5,19.1,29.6V106.8z M61,108.8c-2.3,0-4.6-0.3-6.8-0.6v-1.6V93.8V30.4
		c-7,1.6-13.7,5.6-18.3,11.1l-12.2-7.4c8.5-11.3,22-18.6,37.3-18.6c15.1,0,28.5,7.2,37,18.3l-10.8,9.3C82.8,37,76.2,32.5,68.7,30.6
		v63C81.9,90.4,92,78.9,93.2,65.2h14.2C106,89.5,85.7,108.8,61,108.8z"/>
</g>
</svg>
