<?xml version="1.0" encoding="utf-8"?>
<!-- Generator: Adobe Illustrator 23.0.1, SVG Export Plug-In . SVG Version: 6.00 Build 0)  -->
<svg version="1.1" id="Layer_1" xmlns="http://www.w3.org/2000/svg" xmlns:xlink="http://www.w3.org/1999/xlink" x="0px" y="0px"
	 viewBox="0 0 180 82" style="enable-background:new 0 0 180 82;" xml:space="preserve">
<style type="text/css">
	.st0{fill:#FFFFFF;}
</style>
<g>
	<path class="st0" d="M16.3,12c0.6-0.1,1.4-0.2,2.5-0.2c1.3,0,2.2,0.3,2.8,0.8c0.5,0.5,0.9,1.2,0.9,2.1c0,0.9-0.3,1.6-0.8,2.1
		c-0.7,0.7-1.8,1.1-3,1.1c-0.4,0-0.7,0-1-0.1v4h-1.3V12z M17.5,16.8c0.3,0.1,0.6,0.1,1.1,0.1c1.6,0,2.5-0.8,2.5-2.1
		c0-1.3-0.9-1.9-2.3-1.9c-0.6,0-1,0-1.2,0.1V16.8z"/>
	<path class="st0" d="M27.6,21.8l-0.1-0.9h0c-0.4,0.6-1.2,1.1-2.2,1.1c-1.4,0-2.2-1-2.2-2.1c0-1.7,1.5-2.7,4.3-2.7v-0.1
		c0-0.6-0.2-1.7-1.6-1.7c-0.7,0-1.4,0.2-1.9,0.5l-0.3-0.9c0.6-0.4,1.4-0.6,2.3-0.6c2.2,0,2.7,1.5,2.7,2.9v2.7c0,0.6,0,1.2,0.1,1.7
		H27.6z M27.5,18.2c-1.4,0-3,0.2-3,1.6c0,0.8,0.6,1.2,1.2,1.2c0.9,0,1.5-0.6,1.7-1.2c0-0.1,0.1-0.3,0.1-0.4V18.2z"/>
	<path class="st0" d="M30.8,16.9c0-0.8,0-1.6-0.1-2.2h1.1l0,1.4H32c0.3-1,1.1-1.6,2-1.6c0.1,0,0.3,0,0.4,0v1.2c-0.1,0-0.3,0-0.4,0
		c-0.9,0-1.6,0.7-1.7,1.7c0,0.2-0.1,0.4-0.1,0.6v3.8h-1.3V16.9z"/>
	<path class="st0" d="M37.6,12.6v2.1h1.9v1h-1.9v3.9c0,0.9,0.3,1.4,1,1.4c0.3,0,0.6,0,0.8-0.1l0.1,1c-0.3,0.1-0.6,0.2-1.2,0.2
		c-0.6,0-1.1-0.2-1.4-0.5c-0.4-0.4-0.5-1-0.5-1.9v-3.9h-1.1v-1h1.1v-1.7L37.6,12.6z"/>
	<path class="st0" d="M50.5,18.2c0,2.6-1.8,3.8-3.6,3.8c-1.9,0-3.4-1.4-3.4-3.7c0-2.4,1.6-3.8,3.5-3.8C49.1,14.5,50.5,16,50.5,18.2z
		 M44.8,18.2c0,1.6,0.9,2.7,2.2,2.7c1.2,0,2.2-1.2,2.2-2.8c0-1.2-0.6-2.7-2.1-2.7S44.8,16.9,44.8,18.2z"/>
	<path class="st0" d="M52.2,21.8v-6.2h-1v-1h1v-0.3c0-1,0.2-1.9,0.8-2.5c0.5-0.5,1.1-0.7,1.7-0.7c0.5,0,0.9,0.1,1.1,0.2l-0.2,1
		c-0.2-0.1-0.5-0.2-0.8-0.2c-1.1,0-1.4,1-1.4,2.1v0.4h1.7v1h-1.7v6.2H52.2z"/>
	<path class="st0" d="M61.1,12.6v2.1H63v1h-1.9v3.9c0,0.9,0.3,1.4,1,1.4c0.3,0,0.6,0,0.8-0.1l0.1,1c-0.3,0.1-0.6,0.2-1.2,0.2
		c-0.6,0-1.1-0.2-1.4-0.5c-0.4-0.4-0.5-1-0.5-1.9v-3.9h-1.1v-1h1.1v-1.7L61.1,12.6z"/>
	<path class="st0" d="M64.4,11.3h1.3v4.5h0c0.2-0.4,0.5-0.7,0.9-0.9c0.4-0.2,0.8-0.4,1.3-0.4c1,0,2.5,0.6,2.5,3.1v4.3h-1.3v-4.1
		c0-1.2-0.4-2.1-1.7-2.1c-0.8,0-1.5,0.6-1.7,1.3c-0.1,0.2-0.1,0.4-0.1,0.6v4.3h-1.3V11.3z"/>
	<path class="st0" d="M73.4,18.5c0,1.8,1.2,2.5,2.5,2.5c0.9,0,1.5-0.2,2-0.4l0.2,0.9c-0.5,0.2-1.2,0.4-2.4,0.4
		c-2.2,0-3.5-1.4-3.5-3.6c0-2.2,1.3-3.9,3.4-3.9c2.3,0,3,2.1,3,3.4c0,0.3,0,0.5,0,0.6H73.4z M77.2,17.5c0-0.8-0.3-2.1-1.8-2.1
		c-1.3,0-1.9,1.2-2,2.1H77.2z"/>
	<path class="st0" d="M84.5,12.9h-3v-1.1h7.4v1.1h-3v8.9h-1.3V12.9z"/>
	<path class="st0" d="M95.2,19.9c0,0.7,0,1.4,0.1,1.9h-1.2l-0.1-1.2h0c-0.3,0.6-1.1,1.3-2.4,1.3c-1.1,0-2.5-0.6-2.5-3.1v-4.2h1.3v4
		c0,1.4,0.4,2.3,1.6,2.3c0.9,0,1.5-0.6,1.7-1.2c0.1-0.2,0.1-0.4,0.1-0.7v-4.4h1.3V19.9z"/>
	<path class="st0" d="M97.4,16.9c0-0.8,0-1.6-0.1-2.2h1.1l0,1.4h0.1c0.3-1,1.1-1.6,2-1.6c0.1,0,0.3,0,0.4,0v1.2c-0.1,0-0.3,0-0.4,0
		c-0.9,0-1.6,0.7-1.7,1.7c0,0.2-0.1,0.4-0.1,0.6v3.8h-1.3V16.9z"/>
	<path class="st0" d="M102.3,16.6c0-0.7,0-1.3-0.1-1.9h1.2l0.1,1.2h0c0.4-0.7,1.2-1.3,2.4-1.3c1,0,2.5,0.6,2.5,3v4.3H107v-4.1
		c0-1.2-0.4-2.1-1.7-2.1c-0.9,0-1.5,0.6-1.7,1.3c-0.1,0.2-0.1,0.4-0.1,0.6v4.3h-1.3V16.6z"/>
	<path class="st0" d="M111.2,18.5c0,1.8,1.2,2.5,2.5,2.5c0.9,0,1.5-0.2,2-0.4l0.2,0.9c-0.5,0.2-1.2,0.4-2.4,0.4
		c-2.2,0-3.5-1.4-3.5-3.6c0-2.2,1.3-3.9,3.4-3.9c2.3,0,3,2.1,3,3.4c0,0.3,0,0.5,0,0.6H111.2z M115,17.5c0-0.8-0.3-2.1-1.8-2.1
		c-1.3,0-1.9,1.2-2,2.1H115z"/>
	<path class="st0" d="M117.9,16.9c0-0.8,0-1.6-0.1-2.2h1.1l0,1.4h0.1c0.3-1,1.1-1.6,2-1.6c0.1,0,0.2,0,0.4,0v1.2c-0.1,0-0.3,0-0.4,0
		c-0.9,0-1.6,0.7-1.7,1.7c0,0.2-0.1,0.4-0.1,0.6v3.8h-1.3V16.9z"/>
	<path class="st0" d="M133.4,21.4c-0.6,0.2-1.7,0.5-3.1,0.5c-1.5,0-2.7-0.4-3.7-1.3c-0.9-0.8-1.4-2.2-1.4-3.7c0-3,2.1-5.1,5.4-5.1
		c1.2,0,2.1,0.3,2.5,0.5l-0.3,1c-0.5-0.2-1.2-0.4-2.2-0.4c-2.4,0-4,1.5-4,4c0,2.5,1.5,4,3.8,4c0.8,0,1.4-0.1,1.7-0.3v-3h-2v-1h3.3
		V21.4z"/>
	<path class="st0" d="M135.3,16.9c0-0.8,0-1.6-0.1-2.2h1.1l0,1.4h0.1c0.3-1,1.1-1.6,2-1.6c0.1,0,0.2,0,0.4,0v1.2c-0.1,0-0.3,0-0.4,0
		c-0.9,0-1.6,0.7-1.7,1.7c0,0.2-0.1,0.4-0.1,0.6v3.8h-1.3V16.9z"/>
	<path class="st0" d="M146.5,18.2c0,2.6-1.8,3.8-3.6,3.8c-1.9,0-3.4-1.4-3.4-3.7c0-2.4,1.6-3.8,3.5-3.8
		C145.1,14.5,146.5,16,146.5,18.2z M140.8,18.2c0,1.6,0.9,2.7,2.2,2.7c1.2,0,2.2-1.2,2.2-2.8c0-1.2-0.6-2.7-2.1-2.7
		C141.5,15.5,140.8,16.9,140.8,18.2z"/>
	<path class="st0" d="M154.1,19.9c0,0.7,0,1.4,0.1,1.9H153l-0.1-1.2h0c-0.3,0.6-1.1,1.3-2.4,1.3c-1.1,0-2.5-0.6-2.5-3.1v-4.2h1.3v4
		c0,1.4,0.4,2.3,1.6,2.3c0.9,0,1.5-0.6,1.7-1.2c0.1-0.2,0.1-0.4,0.1-0.7v-4.4h1.3V19.9z"/>
	<path class="st0" d="M156.3,17c0-0.9,0-1.7-0.1-2.3h1.2l0.1,1.2h0c0.5-0.9,1.4-1.4,2.5-1.4c1.7,0,3,1.5,3,3.6
		c0,2.6-1.6,3.8-3.2,3.8c-0.9,0-1.8-0.4-2.2-1.1h0v3.9h-1.3V17z M157.6,18.9c0,0.2,0,0.4,0.1,0.5c0.2,0.9,1,1.5,1.9,1.5
		c1.4,0,2.2-1.1,2.2-2.8c0-1.4-0.8-2.7-2.1-2.7c-0.9,0-1.7,0.6-2,1.6c0,0.2-0.1,0.4-0.1,0.5V18.9z"/>
</g>
<g>
	<path class="st0" d="M81.8,55.7c0,3-1.5,5.5-3.4,5.5h-4.9v-11h4.9C80.3,50.2,81.8,52.7,81.8,55.7 M93.4,55.7
		c0-9.1-5.8-16.5-12.9-16.5H61.3v42.6h12.2V67.9l8,13.9h13.3l-7.1-12.3C91.2,66.5,93.4,61.4,93.4,55.7"/>
	<path class="st0" d="M165.7,55.7c0,3-1.5,5.5-3.4,5.5h-4.9v-11h4.9C164.2,50.2,165.7,52.7,165.7,55.7 M177.3,55.7
		c0-9.1-5.8-16.5-12.9-16.5h-19.2v42.6h12.2V67.9l8,13.9h13.3l-7.1-12.3C175,66.5,177.3,61.4,177.3,55.7"/>
</g>
<polygon class="st0" points="0,39.2 0,52.6 11.6,52.6 11.6,81.8 23,81.8 23,39.2 "/>
<g>
	<path class="st0" d="M58.9,71V39.2H47.5v25.7c0,3-2.4,5.4-5.4,5.4c-3,0-5.4-2.4-5.4-5.4V50.2h9.3V39.2H25.4V71
		c0,6.1,7.5,11,16.8,11C51.4,82,58.9,77.1,58.9,71"/>
	<path class="st0" d="M130.7,69.7v-4.9h12.1V55h-12.1v-4.8h12.1V39.2h-24.3v18.4c-2.7-4.5-8.9-14.9-11-18.4H95.5v42.6h12.1V61
		c3,5,8.2,13.8,8.9,15c2,3.4,5.8,5.7,10,5.7v0h16.2v-12H130.7z"/>
</g>
</svg>
